<svg width="1185" height="720" viewBox="0 0 1185 720" fill="none" xmlns="http://www.w3.org/2000/svg">
<g clip-path="url(#clip0_139_4557)">
<rect width="1185" height="720" fill="#336BEA"/>
<g opacity="0.4">
<path fill-rule="evenodd" clip-rule="evenodd" d="M1663.61 -990.566C1924.46 -251.176 1688.45 -920.148 1949.31 -180.758C2210.17 558.631 2101.63 798.752 1384.93 1067.87C668.233 1336.98 1316.68 1093.5 599.976 1362.61C-116.724 1631.73 -349.476 1519.76 -610.333 780.37C-871.19 40.9801 -635.176 709.952 -896.034 -29.4379C-1156.89 -768.827 -1048.36 -1008.95 -331.658 -1278.06C385.042 -1547.18 53.084 -1422.53 453.299 -1572.81C1170 -1841.92 1402.75 -1729.95 1663.61 -990.566Z" stroke="#B1D6FF" stroke-width="4"/>
<path fill-rule="evenodd" clip-rule="evenodd" d="M1373.04 -892.688C1630.95 -322.099 1397.61 -838.346 1655.51 -267.757C1913.42 302.831 1843.14 502.036 1290.06 768.105C736.98 1034.18 1237.38 793.445 684.306 1059.52C131.227 1325.59 -61.8645 1253.08 -319.769 682.492C-577.674 111.903 -344.332 628.15 -602.237 57.5616C-860.141 -513.027 -789.862 -712.231 -236.783 -978.301C316.296 -1244.37 60.1228 -1121.13 368.97 -1269.71C922.048 -1535.78 1115.14 -1463.28 1373.04 -892.688Z" stroke="#B1D6FF" stroke-width="4"/>
<path fill-rule="evenodd" clip-rule="evenodd" d="M1148.08 -793.795C1392.23 -357.525 1171.33 -752.245 1415.49 -315.975C1659.64 120.295 1617.08 284.141 1194.2 536.021C771.317 787.902 1153.93 560.01 731.043 811.891C308.161 1063.77 149.343 1019.87 -94.8079 583.599C-338.959 147.329 -118.06 542.049 -362.212 105.779C-606.363 -330.491 -563.808 -494.336 -140.925 -746.217C281.957 -998.098 86.0879 -881.433 322.231 -1022.09C745.113 -1273.97 903.931 -1230.06 1148.08 -793.795Z" stroke="#B1D6FF" stroke-width="4"/>
<path fill-rule="evenodd" clip-rule="evenodd" d="M975.13 -698.362C1199.08 -368.402 996.458 -666.937 1220.41 -336.978C1444.36 -7.01811 1421.53 126.553 1101.69 357.593C781.861 588.634 1071.23 379.597 751.401 610.637C431.567 841.678 302.094 818.125 78.1442 488.166C-145.806 158.206 56.8156 456.741 -167.134 126.782C-391.085 -203.178 -368.255 -336.749 -48.4211 -567.789C271.413 -798.83 123.273 -691.817 301.873 -820.833C621.707 -1051.87 751.179 -1028.32 975.13 -698.362Z" stroke="#B1D6FF" stroke-width="4"/>
<path fill-rule="evenodd" clip-rule="evenodd" d="M843.87 -610.005C1044.59 -363.229 862.986 -586.502 1063.7 -339.726C1264.42 -92.95 1255.25 15.1086 1016.05 222.178C776.846 429.248 993.268 241.899 754.065 448.969C514.862 656.039 410.119 646.585 209.404 399.809C8.68825 153.033 190.288 376.306 -10.4275 129.53C-211.143 -117.246 -201.979 -225.305 37.2242 -432.374C276.428 -639.444 165.634 -543.535 299.209 -659.165C538.412 -866.235 643.155 -856.781 843.87 -610.005Z" stroke="#B1D6FF" stroke-width="4"/>
<path fill-rule="evenodd" clip-rule="evenodd" d="M745.334 -530.306C921.973 -348.074 762.156 -512.95 938.796 -330.718C1115.44 -148.486 1115.44 -61.7094 938.796 120.522C762.156 302.754 921.973 137.878 745.334 320.11C568.694 502.342 484.58 502.342 307.94 320.11C131.3 137.878 291.117 302.754 114.478 120.522C-62.162 -61.7094 -62.162 -148.486 114.478 -330.718C291.117 -512.95 209.302 -428.545 307.94 -530.306C484.58 -712.537 568.694 -712.537 745.334 -530.306Z" stroke="#B1D6FF" stroke-width="4"/>
<path fill-rule="evenodd" clip-rule="evenodd" d="M672.048 -459.352C824.987 -326.958 686.613 -446.743 839.553 -314.349C992.492 -181.954 998.351 -112.865 870.02 44.9162C741.688 202.698 857.798 59.943 729.466 217.724C601.135 375.506 534.166 381.55 381.226 249.156C228.287 116.762 366.661 236.547 213.721 104.153C60.7817 -28.2415 54.9227 -97.3309 183.254 -255.112C311.586 -412.894 252.146 -339.813 323.808 -427.92C452.139 -585.702 519.108 -591.746 672.048 -459.352Z" stroke="#B1D6FF" stroke-width="4"/>
<path fill-rule="evenodd" clip-rule="evenodd" d="M618.637 -398.063C749.552 -303.493 631.105 -389.056 762.02 -294.487C892.934 -199.917 902.279 -145.244 810.611 -10.1851C718.944 124.874 801.881 2.67769 710.214 137.737C618.547 272.796 565.551 282.436 434.637 187.867C303.722 93.2974 422.169 178.86 291.254 84.2908C160.34 -10.2785 150.995 -64.9519 242.663 -200.011C334.33 -335.07 291.872 -272.514 343.06 -347.933C434.727 -482.992 487.723 -492.632 618.637 -398.063Z" stroke="#B1D6FF" stroke-width="4"/>
<path fill-rule="evenodd" clip-rule="evenodd" d="M580.157 -345.196C690.882 -279.245 590.702 -338.915 701.427 -272.964C812.151 -207.013 823.294 -164.113 759.367 -49.8835C695.44 64.3463 753.279 -39.0045 689.352 75.2254C625.425 189.455 583.841 200.95 473.117 135C362.392 69.049 462.572 128.719 351.847 62.768C241.123 -3.18265 229.981 -46.0828 293.907 -160.313C357.834 -274.542 328.225 -221.634 363.922 -285.421C427.849 -399.651 469.433 -411.146 580.157 -345.196Z" stroke="#B1D6FF" stroke-width="4"/>
<path fill-rule="evenodd" clip-rule="evenodd" d="M553.063 -300.295C645.763 -255.7 561.892 -296.048 654.591 -251.453C747.291 -206.858 759.071 -173.47 715.844 -77.8352C672.617 17.7993 711.727 -68.7271 668.501 26.9074C625.274 122.542 592.91 134.694 500.211 90.099C407.511 45.5039 491.382 85.8519 398.682 41.2568C305.983 -3.33832 294.203 -36.7263 337.43 -132.361C380.657 -227.995 360.635 -183.7 384.773 -237.103C428 -332.738 460.363 -344.89 553.063 -300.295Z" stroke="#B1D6FF" stroke-width="4"/>
<path fill-rule="evenodd" clip-rule="evenodd" d="M534.487 -262.184C611.193 -233.381 541.792 -259.44 618.499 -230.638C695.206 -201.835 706.822 -176.135 678.903 -97.0001C650.984 -17.8649 676.244 -89.4634 648.325 -10.3282C620.406 68.8069 595.495 80.7908 518.788 51.988C442.082 23.1851 511.483 49.2449 434.776 20.442C358.069 -8.36084 346.453 -34.0604 374.372 -113.196C402.291 -192.331 389.36 -155.677 404.95 -199.867C432.869 -279.003 457.78 -290.986 534.487 -262.184Z" stroke="#B1D6FF" stroke-width="4"/>
<path fill-rule="evenodd" clip-rule="evenodd" d="M522.269 -231.042C585.443 -213.579 528.286 -229.379 591.459 -211.916C654.633 -194.453 665.644 -174.777 648.717 -109.604C631.789 -44.4304 647.104 -103.397 630.177 -38.2234C613.25 26.95 594.178 38.3097 531.005 20.8465C467.831 3.38328 524.988 19.1833 461.815 1.72012C398.641 -15.7431 387.63 -35.4185 404.558 -100.592C421.485 -165.765 413.645 -135.579 423.097 -171.972C440.024 -237.146 459.096 -248.506 522.269 -231.042Z" stroke="#B1D6FF" stroke-width="4"/>
<path fill-rule="evenodd" clip-rule="evenodd" d="M514.689 -204.78C566.022 -195.442 519.578 -203.89 570.911 -194.553C622.244 -185.215 632.311 -170.382 623.26 -117.424C614.209 -64.4658 622.398 -112.38 613.347 -59.4222C604.295 -6.464 589.918 3.92177 538.585 -5.41619C487.252 -14.7541 533.696 -6.30551 482.363 -15.6435C431.03 -24.9814 420.963 -39.8138 430.014 -92.772C439.066 -145.73 434.873 -121.201 439.928 -150.774C448.979 -203.732 463.356 -214.118 514.689 -204.78Z" stroke="#B1D6FF" stroke-width="4"/>
</g>
<path d="M203.52 300H225.64L195.54 398H176.64L154.66 343.12L133.52 398H114.62L83.68 300H106.22L125.4 365.1L151.16 300.98H158.3L184.76 365.1L203.52 300ZM266.823 400.1C259.076 400.1 252.076 398.373 245.823 394.92C239.57 391.467 234.67 386.707 231.123 380.64C227.67 374.48 225.943 367.667 225.943 360.2C225.943 348.72 229.816 339.2 237.563 331.64C245.31 324.08 255.063 320.3 266.823 320.3C278.49 320.3 288.196 324.08 295.943 331.64C303.69 339.2 307.563 348.72 307.563 360.2C307.563 371.587 303.643 381.107 295.803 388.76C288.056 396.32 278.396 400.1 266.823 400.1ZM266.823 380.92C272.703 380.92 277.51 379.007 281.243 375.18C284.976 371.26 286.843 366.267 286.843 360.2C286.843 354.133 284.976 349.187 281.243 345.36C277.51 341.44 272.656 339.48 266.683 339.48C260.803 339.48 255.996 341.44 252.263 345.36C248.53 349.187 246.663 354.133 246.663 360.2C246.663 363.187 247.13 365.987 248.063 368.6C249.09 371.213 250.49 373.407 252.263 375.18C254.036 376.953 256.136 378.353 258.563 379.38C261.083 380.407 263.836 380.92 266.823 380.92ZM358.288 400.1C350.541 400.1 343.541 398.373 337.288 394.92C331.034 391.467 326.134 386.707 322.588 380.64C319.134 374.48 317.408 367.667 317.408 360.2C317.408 348.72 321.281 339.2 329.028 331.64C336.774 324.08 346.528 320.3 358.288 320.3C369.954 320.3 379.661 324.08 387.408 331.64C395.154 339.2 399.028 348.72 399.028 360.2C399.028 371.587 395.108 381.107 387.268 388.76C379.521 396.32 369.861 400.1 358.288 400.1ZM358.288 380.92C364.168 380.92 368.974 379.007 372.708 375.18C376.441 371.26 378.308 366.267 378.308 360.2C378.308 354.133 376.441 349.187 372.708 345.36C368.974 341.44 364.121 339.48 358.148 339.48C352.268 339.48 347.461 341.44 343.728 345.36C339.994 349.187 338.128 354.133 338.128 360.2C338.128 363.187 338.594 365.987 339.528 368.6C340.554 371.213 341.954 373.407 343.728 375.18C345.501 376.953 347.601 378.353 350.028 379.38C352.548 380.407 355.301 380.92 358.288 380.92ZM454.933 320.3C466.413 320.3 475.886 324.08 483.353 331.64C490.913 339.2 494.693 348.72 494.693 360.2C494.693 371.68 490.913 381.2 483.353 388.76C475.886 396.32 466.413 400.1 454.933 400.1C445.879 400.1 437.993 397.3 431.273 391.7L428.893 398H413.773V295.1H434.213V326.46C440.279 322.353 447.186 320.3 454.933 320.3ZM438.553 374.9C442.473 378.82 447.373 380.78 453.253 380.78C459.226 380.78 464.126 378.82 467.953 374.9C471.873 370.98 473.833 366.08 473.833 360.2C473.833 356.28 472.946 352.733 471.173 349.56C469.493 346.387 467.066 343.913 463.893 342.14C460.719 340.367 457.173 339.48 453.253 339.48C449.426 339.48 445.926 340.367 442.753 342.14C439.579 343.913 437.106 346.387 435.333 349.56C433.559 352.733 432.673 356.28 432.673 360.2C432.673 366.08 434.633 370.98 438.553 374.9ZM509.339 398V295.1H529.779V398H509.339ZM622.758 359.92C622.758 361.88 622.618 363.887 622.338 365.94H565.218C566.058 371.073 568.064 375.04 571.238 377.84C574.504 380.547 578.658 381.9 583.698 381.9C587.151 381.9 590.278 381.153 593.078 379.66C595.878 378.073 598.071 375.927 599.658 373.22H621.218C618.418 381.433 613.658 387.967 606.938 392.82C600.218 397.673 592.471 400.1 583.698 400.1C572.498 400.1 563.164 396.273 555.698 388.62C548.231 380.967 544.498 371.493 544.498 360.2C544.498 355.72 545.104 351.427 546.318 347.32C547.624 343.213 549.444 339.527 551.778 336.26C554.204 332.993 557.004 330.193 560.178 327.86C563.351 325.433 566.944 323.567 570.958 322.26C574.971 320.953 579.218 320.3 583.698 320.3C591.258 320.3 598.024 322.073 603.998 325.62C610.064 329.167 614.684 333.973 617.858 340.04C621.124 346.107 622.758 352.733 622.758 359.92ZM583.698 337.66C579.124 337.66 575.251 338.92 572.078 341.44C568.998 343.96 566.898 347.46 565.778 351.94H602.318C601.384 348.86 600.031 346.293 598.258 344.24C596.484 342.093 594.338 340.46 591.818 339.34C589.391 338.22 586.684 337.66 583.698 337.66ZM705.944 400.1C698.477 400.1 691.664 398.373 685.504 394.92C679.437 391.373 674.631 386.52 671.084 380.36C667.631 374.2 665.904 367.387 665.904 359.92C665.904 348.627 669.731 339.2 677.384 331.64C685.037 324.08 694.604 320.3 706.084 320.3C715.884 320.3 724.284 323.147 731.284 328.84C738.284 334.44 742.717 341.907 744.584 351.24H724.284C722.604 347.6 720.131 344.753 716.864 342.7C713.691 340.553 710.051 339.48 705.944 339.48C700.437 339.48 695.817 341.44 692.084 345.36C688.444 349.28 686.624 354.18 686.624 360.06C686.624 365.94 688.491 370.887 692.224 374.9C695.957 378.913 700.531 380.92 705.944 380.92C710.051 380.92 713.691 379.847 716.864 377.7C720.037 375.46 722.511 372.287 724.284 368.18H744.864C742.997 377.793 738.517 385.54 731.424 391.42C724.331 397.207 715.837 400.1 705.944 400.1ZM794.284 400.1C786.537 400.1 779.537 398.373 773.284 394.92C767.031 391.467 762.131 386.707 758.584 380.64C755.131 374.48 753.404 367.667 753.404 360.2C753.404 348.72 757.277 339.2 765.024 331.64C772.771 324.08 782.524 320.3 794.284 320.3C805.951 320.3 815.657 324.08 823.404 331.64C831.151 339.2 835.024 348.72 835.024 360.2C835.024 371.587 831.104 381.107 823.264 388.76C815.517 396.32 805.857 400.1 794.284 400.1ZM794.284 380.92C800.164 380.92 804.971 379.007 808.704 375.18C812.437 371.26 814.304 366.267 814.304 360.2C814.304 354.133 812.437 349.187 808.704 345.36C804.971 341.44 800.117 339.48 794.144 339.48C788.264 339.48 783.457 341.44 779.724 345.36C775.991 349.187 774.124 354.133 774.124 360.2C774.124 363.187 774.591 365.987 775.524 368.6C776.551 371.213 777.951 373.407 779.724 375.18C781.497 376.953 783.597 378.353 786.024 379.38C788.544 380.407 791.297 380.92 794.284 380.92ZM849.769 398V295.1H870.209V398H849.769ZM925.807 400.1C918.061 400.1 911.061 398.373 904.807 394.92C898.554 391.467 893.654 386.707 890.107 380.64C886.654 374.48 884.927 367.667 884.927 360.2C884.927 348.72 888.801 339.2 896.547 331.64C904.294 324.08 914.047 320.3 925.807 320.3C937.474 320.3 947.181 324.08 954.927 331.64C962.674 339.2 966.547 348.72 966.547 360.2C966.547 371.587 962.627 381.107 954.787 388.76C947.041 396.32 937.381 400.1 925.807 400.1ZM925.807 380.92C931.687 380.92 936.494 379.007 940.227 375.18C943.961 371.26 945.827 366.267 945.827 360.2C945.827 354.133 943.961 349.187 940.227 345.36C936.494 341.44 931.641 339.48 925.667 339.48C919.787 339.48 914.981 341.44 911.247 345.36C907.514 349.187 905.647 354.133 905.647 360.2C905.647 363.187 906.114 365.987 907.047 368.6C908.074 371.213 909.474 373.407 911.247 375.18C913.021 376.953 915.121 378.353 917.547 379.38C920.067 380.407 922.821 380.92 925.807 380.92ZM1019.93 321.98H1026.65V341.3H1017.83C1012.05 341.3 1007.89 342.653 1005.37 345.36C1002.95 348.067 1001.73 352.5 1001.73 358.66V398H981.292V322.4H994.452L998.092 331.64C1003.23 325.2 1010.51 321.98 1019.93 321.98ZM1064.64 400.1C1058.38 400.1 1052.83 398.98 1047.98 396.74C1043.22 394.5 1039.48 391.327 1036.78 387.22C1034.16 383.113 1032.86 378.4 1032.86 373.08H1052.74C1052.83 375.32 1053.39 377.233 1054.42 378.82C1055.54 380.313 1057.03 381.433 1058.9 382.18C1060.76 382.833 1062.91 383.16 1065.34 383.16C1067.3 383.16 1069.07 382.88 1070.66 382.32C1072.24 381.76 1073.55 380.92 1074.58 379.8C1075.6 378.587 1076.12 377.187 1076.12 375.6C1076.12 373.267 1074.9 371.54 1072.48 370.42C1070.05 369.3 1066.41 368.32 1061.56 367.48C1058.48 367.013 1055.91 366.547 1053.86 366.08C1051.9 365.613 1049.52 364.82 1046.72 363.7C1044.01 362.487 1041.82 361.133 1040.14 359.64C1038.55 358.147 1037.15 356.093 1035.94 353.48C1034.72 350.867 1034.12 347.833 1034.12 344.38C1034.12 337.287 1036.92 331.5 1042.52 327.02C1048.12 322.54 1055.44 320.3 1064.5 320.3C1073.64 320.3 1080.97 322.633 1086.48 327.3C1092.08 331.873 1094.88 337.94 1094.88 345.5H1075.42C1075.42 339.527 1071.64 336.54 1064.08 336.54C1060.9 336.54 1058.43 337.193 1056.66 338.5C1054.88 339.807 1054 341.58 1054 343.82C1054 344.753 1054.23 345.64 1054.7 346.48C1055.26 347.227 1055.86 347.833 1056.52 348.3C1057.26 348.767 1058.38 349.233 1059.88 349.7C1061.37 350.073 1062.63 350.353 1063.66 350.54C1064.68 350.727 1066.22 351.007 1068.28 351.38C1070.05 351.753 1071.31 352.033 1072.06 352.22C1072.8 352.313 1074.06 352.547 1075.84 352.92C1077.61 353.293 1078.92 353.667 1079.76 354.04C1080.69 354.32 1081.9 354.74 1083.4 355.3C1084.98 355.86 1086.15 356.467 1086.9 357.12C1087.74 357.68 1088.72 358.38 1089.84 359.22C1091.05 360.06 1091.98 360.993 1092.64 362.02C1093.29 363.047 1093.94 364.167 1094.6 365.38C1095.25 366.593 1095.67 367.993 1095.86 369.58C1096.14 371.167 1096.28 372.847 1096.28 374.62C1096.28 382.367 1093.38 388.573 1087.6 393.24C1081.81 397.813 1074.16 400.1 1064.64 400.1Z" fill="white"/>
<path d="M429.76 503.48C427.573 505.56 424.813 506.6 421.48 506.6C418.147 506.6 415.387 505.56 413.2 503.48C411.013 501.4 409.92 498.733 409.92 495.48V478H416V495.2C416 496.907 416.507 498.28 417.52 499.32C418.533 500.36 419.853 500.88 421.48 500.88C423.107 500.88 424.427 500.36 425.44 499.32C426.48 498.28 427 496.907 427 495.2V478H433.04V495.48C433.04 498.733 431.947 501.4 429.76 503.48ZM439.145 506V478H445.225V506H439.145ZM465.857 499.32C464.417 499.32 463.217 498.84 462.257 497.88C461.297 496.92 460.817 495.72 460.817 494.28C460.817 493.32 461.03 492.453 461.457 491.68C461.91 490.907 462.523 490.307 463.297 489.88C464.07 489.453 464.923 489.24 465.857 489.24C467.297 489.24 468.497 489.72 469.457 490.68C470.417 491.64 470.897 492.84 470.897 494.28C470.897 495.72 470.417 496.92 469.457 497.88C468.497 498.84 467.297 499.32 465.857 499.32ZM486.089 506V476.6H491.929V506H486.089ZM497.534 481.52V476.08H503.374V481.52H497.534ZM497.534 506V484.4H503.374V506H497.534ZM520.74 483.8C524.02 483.8 526.726 484.88 528.86 487.04C531.02 489.2 532.1 491.92 532.1 495.2C532.1 498.48 531.02 501.2 528.86 503.36C526.726 505.52 524.02 506.6 520.74 506.6C518.153 506.6 515.9 505.8 513.98 504.2L513.3 506H508.98V476.6H514.82V485.56C516.553 484.387 518.526 483.8 520.74 483.8ZM516.06 499.4C517.18 500.52 518.58 501.08 520.26 501.08C521.966 501.08 523.366 500.52 524.46 499.4C525.58 498.28 526.14 496.88 526.14 495.2C526.14 494.08 525.886 493.067 525.38 492.16C524.9 491.253 524.206 490.547 523.3 490.04C522.393 489.533 521.38 489.28 520.26 489.28C519.166 489.28 518.166 489.533 517.26 490.04C516.353 490.547 515.646 491.253 515.14 492.16C514.633 493.067 514.38 494.08 514.38 495.2C514.38 496.88 514.94 498.28 516.06 499.4ZM547.324 484.28H549.244V489.8H546.724C545.071 489.8 543.884 490.187 543.164 490.96C542.471 491.733 542.124 493 542.124 494.76V506H536.284V484.4H540.044L541.084 487.04C542.551 485.2 544.631 484.28 547.324 484.28ZM569.745 484.36H574.105V505.96H569.505L569.025 504.04C567.051 505.747 564.718 506.6 562.025 506.6C558.771 506.6 556.065 505.52 553.905 503.36C551.771 501.173 550.705 498.44 550.705 495.16C550.705 491.907 551.771 489.2 553.905 487.04C556.065 484.88 558.771 483.8 562.025 483.8C564.771 483.8 567.131 484.68 569.105 486.44L569.745 484.36ZM558.265 499.4C559.385 500.52 560.785 501.08 562.465 501.08C564.171 501.08 565.585 500.52 566.705 499.4C567.825 498.28 568.385 496.867 568.385 495.16C568.385 493.453 567.825 492.04 566.705 490.92C565.585 489.8 564.185 489.24 562.505 489.24C561.385 489.24 560.371 489.507 559.465 490.04C558.585 490.547 557.891 491.253 557.385 492.16C556.878 493.04 556.625 494.04 556.625 495.16C556.625 496.867 557.171 498.28 558.265 499.4ZM590.762 484.28H592.682V489.8H590.162C588.509 489.8 587.322 490.187 586.602 490.96C585.909 491.733 585.562 493 585.562 494.76V506H579.722V484.4H583.482L584.522 487.04C585.989 485.2 588.069 484.28 590.762 484.28ZM610.931 484.4H617.171L607.731 505.72C606.398 508.707 605.038 510.8 603.651 512C602.264 513.2 600.384 513.8 598.011 513.8H595.611V508.52H597.651C599.038 508.52 600.024 508.267 600.611 507.76C601.198 507.253 601.838 506.173 602.531 504.52L602.611 504.36L593.451 484.4H599.811L605.571 497.68L610.931 484.4ZM633.708 499.32C632.268 499.32 631.068 498.84 630.108 497.88C629.148 496.92 628.668 495.72 628.668 494.28C628.668 493.32 628.881 492.453 629.308 491.68C629.761 490.907 630.375 490.307 631.148 489.88C631.921 489.453 632.775 489.24 633.708 489.24C635.148 489.24 636.348 489.72 637.308 490.68C638.268 491.64 638.748 492.84 638.748 494.28C638.748 495.72 638.268 496.92 637.308 497.88C636.348 498.84 635.148 499.32 633.708 499.32ZM663.981 506.6C661.847 506.6 659.901 506.107 658.141 505.12C656.407 504.107 655.034 502.72 654.021 500.96C653.034 499.2 652.541 497.253 652.541 495.12C652.541 491.893 653.634 489.2 655.821 487.04C658.007 484.88 660.741 483.8 664.021 483.8C666.821 483.8 669.221 484.613 671.221 486.24C673.221 487.84 674.487 489.973 675.021 492.64H669.221C668.741 491.6 668.034 490.787 667.101 490.2C666.194 489.587 665.154 489.28 663.981 489.28C662.407 489.28 661.087 489.84 660.021 490.96C658.981 492.08 658.461 493.48 658.461 495.16C658.461 496.84 658.994 498.253 660.061 499.4C661.127 500.547 662.434 501.12 663.981 501.12C665.154 501.12 666.194 500.813 667.101 500.2C668.007 499.56 668.714 498.653 669.221 497.48H675.101C674.567 500.227 673.287 502.44 671.261 504.12C669.234 505.773 666.807 506.6 663.981 506.6ZM689.221 506.6C687.007 506.6 685.007 506.107 683.221 505.12C681.434 504.133 680.034 502.773 679.021 501.04C678.034 499.28 677.541 497.333 677.541 495.2C677.541 491.92 678.647 489.2 680.861 487.04C683.074 484.88 685.861 483.8 689.221 483.8C692.554 483.8 695.327 484.88 697.541 487.04C699.754 489.2 700.861 491.92 700.861 495.2C700.861 498.453 699.741 501.173 697.501 503.36C695.287 505.52 692.527 506.6 689.221 506.6ZM689.221 501.12C690.901 501.12 692.274 500.573 693.341 499.48C694.407 498.36 694.941 496.933 694.941 495.2C694.941 493.467 694.407 492.053 693.341 490.96C692.274 489.84 690.887 489.28 689.181 489.28C687.501 489.28 686.127 489.84 685.061 490.96C683.994 492.053 683.461 493.467 683.461 495.2C683.461 496.053 683.594 496.853 683.861 497.6C684.154 498.347 684.554 498.973 685.061 499.48C685.567 499.987 686.167 500.387 686.861 500.68C687.581 500.973 688.367 501.12 689.221 501.12ZM705.073 506V476.6H710.913V506H705.073ZM726.799 506.6C724.585 506.6 722.585 506.107 720.799 505.12C719.012 504.133 717.612 502.773 716.599 501.04C715.612 499.28 715.119 497.333 715.119 495.2C715.119 491.92 716.225 489.2 718.439 487.04C720.652 484.88 723.439 483.8 726.799 483.8C730.132 483.8 732.905 484.88 735.119 487.04C737.332 489.2 738.439 491.92 738.439 495.2C738.439 498.453 737.319 501.173 735.079 503.36C732.865 505.52 730.105 506.6 726.799 506.6ZM726.799 501.12C728.479 501.12 729.852 500.573 730.919 499.48C731.985 498.36 732.519 496.933 732.519 495.2C732.519 493.467 731.985 492.053 730.919 490.96C729.852 489.84 728.465 489.28 726.759 489.28C725.079 489.28 723.705 489.84 722.639 490.96C721.572 492.053 721.039 493.467 721.039 495.2C721.039 496.053 721.172 496.853 721.439 497.6C721.732 498.347 722.132 498.973 722.639 499.48C723.145 499.987 723.745 500.387 724.439 500.68C725.159 500.973 725.945 501.12 726.799 501.12ZM753.692 484.28H755.612V489.8H753.092C751.438 489.8 750.252 490.187 749.532 490.96C748.838 491.733 748.492 493 748.492 494.76V506H742.652V484.4H746.412L747.452 487.04C748.918 485.2 750.998 484.28 753.692 484.28ZM766.464 506.6C764.678 506.6 763.091 506.28 761.704 505.64C760.344 505 759.278 504.093 758.504 502.92C757.758 501.747 757.384 500.4 757.384 498.88H763.064C763.091 499.52 763.251 500.067 763.544 500.52C763.864 500.947 764.291 501.267 764.824 501.48C765.358 501.667 765.971 501.76 766.664 501.76C767.224 501.76 767.731 501.68 768.184 501.52C768.638 501.36 769.011 501.12 769.304 500.8C769.598 500.453 769.744 500.053 769.744 499.6C769.744 498.933 769.398 498.44 768.704 498.12C768.011 497.8 766.971 497.52 765.584 497.28C764.704 497.147 763.971 497.013 763.384 496.88C762.824 496.747 762.144 496.52 761.344 496.2C760.571 495.853 759.944 495.467 759.464 495.04C759.011 494.613 758.611 494.027 758.264 493.28C757.918 492.533 757.744 491.667 757.744 490.68C757.744 488.653 758.544 487 760.144 485.72C761.744 484.44 763.838 483.8 766.424 483.8C769.038 483.8 771.131 484.467 772.704 485.8C774.304 487.107 775.104 488.84 775.104 491H769.544C769.544 489.293 768.464 488.44 766.304 488.44C765.398 488.44 764.691 488.627 764.184 489C763.678 489.373 763.424 489.88 763.424 490.52C763.424 490.787 763.491 491.04 763.624 491.28C763.784 491.493 763.958 491.667 764.144 491.8C764.358 491.933 764.678 492.067 765.104 492.2C765.531 492.307 765.891 492.387 766.184 492.44C766.478 492.493 766.918 492.573 767.504 492.68C768.011 492.787 768.371 492.867 768.584 492.92C768.798 492.947 769.158 493.013 769.664 493.12C770.171 493.227 770.544 493.333 770.784 493.44C771.051 493.52 771.398 493.64 771.824 493.8C772.278 493.96 772.611 494.133 772.824 494.32C773.064 494.48 773.344 494.68 773.664 494.92C774.011 495.16 774.278 495.427 774.464 495.72C774.651 496.013 774.838 496.333 775.024 496.68C775.211 497.027 775.331 497.427 775.384 497.88C775.464 498.333 775.504 498.813 775.504 499.32C775.504 501.533 774.678 503.307 773.024 504.64C771.371 505.947 769.184 506.6 766.464 506.6Z" fill="white"/>
</g>
<defs>
<clipPath id="clip0_139_4557">
<rect width="1185" height="720" fill="white"/>
</clipPath>
</defs>
</svg>
